<?xml version="1.0" standalone="no"?>
<!DOCTYPE svg PUBLIC "-//W3C//DTD SVG 20010904//EN"
 "http://www.w3.org/TR/2001/REC-SVG-20010904/DTD/svg10.dtd">
<svg version="1.0" xmlns="http://www.w3.org/2000/svg"
 width="16.000000pt" height="16.000000pt" viewBox="0 0 16.000000 16.000000"
 preserveAspectRatio="xMidYMid meet">
<metadata>
Created by potrace 1.11, written by Peter Selinger 2001-2013
</metadata>
<g transform="translate(0.000000,16.000000) scale(0.002286,-0.002286)"
fill="#000000" stroke="none">
<path d="M0 3500 l0 -3500 3500 0 3500 0 0 3500 0 3500 -3500 0 -3500 0 0
-3500z m639 1733 c72 -35 149 -108 208 -197 142 -215 236 -535 399 -1361 123
-622 154 -770 214 -1000 77 -299 146 -480 205 -535 l22 -21 28 33 c102 120
199 474 385 1408 216 1083 307 1367 502 1575 83 89 161 127 271 133 194 9 332
-98 457 -353 128 -262 188 -496 385 -1500 153 -776 270 -1182 368 -1273 l25
-23 25 33 c112 149 193 448 392 1443 163 819 233 1083 349 1320 119 244 256
355 436 355 187 0 336 -125 454 -380 112 -244 184 -529 371 -1481 152 -774
265 -1167 363 -1266 l32 -31 0 -139 c0 -76 -3 -162 -6 -191 -7 -52 -7 -52 -43
-52 -19 0 -56 8 -81 17 -252 94 -409 420 -569 1188 -22 105 -80 397 -130 650
-153 776 -255 1140 -351 1255 -37 45 -51 37 -102 -56 -95 -174 -195 -558 -347
-1339 -155 -795 -234 -1102 -345 -1340 -131 -279 -294 -401 -503 -374 -157 21
-282 139 -393 371 -105 220 -184 517 -321 1208 -118 596 -161 799 -214 1005
-93 359 -184 570 -237 550 -24 -10 -76 -106 -118 -220 -79 -217 -148 -503
-260 -1070 -169 -861 -230 -1113 -325 -1360 -76 -198 -167 -337 -268 -411
-172 -127 -393 -95 -540 78 -177 211 -269 499 -456 1430 -125 618 -151 740
-206 958 -78 315 -151 512 -213 579 l-32 33 0 163 c0 89 3 177 6 195 l7 32 50
-6 c28 -3 76 -18 106 -33z"/>
</g>
</svg>
